<svg width="559" height="200" viewBox="0 0 559 300" fill="none" xmlns="http://www.w3.org/2000/svg">
<path d="M125.283 11.2251C125.283 11.9735 124.785 12.3476 123.747 12.3476H123.332C122.751 12.2645 121.838 11.433 120.509 9.81161C118.434 7.5666 116.981 6.27779 116.026 5.90362C115.486 5.6126 114.905 5.48788 114.365 5.48788C113.826 5.48788 112.871 5.69575 111.584 6.06992C110.38 6.52724 109.675 6.77669 109.467 6.77669C106.021 8.10706 103.489 9.64531 101.912 11.3914C100.251 13.2623 99.1305 15.1331 98.5493 17.004C97.8021 21.0367 97.304 23.9469 97.0134 25.693L96.4322 29.0605C95.685 33.5505 95.2284 36.4607 95.0208 37.7495C94.1906 43.7362 93.6924 48.5173 93.6094 52.0511C93.3188 56.9153 93.1943 62.8604 93.1943 69.8864C93.1943 83.1902 94.1906 92.7523 96.1416 98.6558C96.8058 100.236 97.8436 101.524 99.2135 102.439C100.708 103.395 102.285 103.853 103.987 103.853C106.52 103.853 108.761 103.021 110.712 101.317C111.833 100.028 113.037 98.739 114.365 97.5333C116.607 95.2052 118.6 94.0411 120.385 94.0411C121.879 94.0411 122.626 94.8726 122.626 96.5771C122.626 97.4086 122.336 98.1154 121.796 98.6974C120.592 99.9031 119.264 101.026 117.894 102.065C116.026 103.853 113.079 105.89 109.052 108.218C105.606 110.172 102.784 111.17 100.666 111.17C98.0512 111.336 95.7265 110.629 93.6509 108.925C91.4923 107.511 89.3337 105.516 87.2166 102.896C86.2618 101.774 85.6391 100.776 85.2655 99.9446C84.6844 98.5311 84.2692 97.3255 84.0202 96.2861C81.0313 86.7656 79.5369 75.0416 79.5369 61.1974C79.5369 48.1847 80.7822 36.4607 83.3145 25.984L86.0958 16.0062C86.926 13.678 88.0468 11.433 89.4582 9.27114C91.1602 6.56881 94.066 4.53167 98.3003 3.24287C101.663 2.32824 105.15 1.82935 108.803 1.82935C110.671 1.82935 112.539 1.95407 114.407 2.24509C115.32 2.32824 117.147 3.36759 119.886 5.32158C122.585 7.19243 124.328 8.77225 125.075 10.1026L125.283 11.2251Z" fill="black"/>
<path d="M195.314 9.56208C195.314 9.56208 195.355 9.60366 195.397 9.68681C195.438 9.76995 195.48 9.76995 195.48 9.68681L195.355 10.934V11.6408C195.065 13.969 194.94 16.2555 194.94 18.5006C194.733 21.286 194.649 23.3647 194.649 24.6535C194.566 26.2334 194.359 29.393 194.068 34.0493L193.529 42.0316L193.238 47.7688V48.0599C192.574 49.3902 192.242 50.6375 192.242 51.8431V55.6264C192.242 56.2916 192.408 57.1646 192.781 58.2871C192.574 61.5715 192.491 65.3132 192.491 69.5122L192.615 75.6652L192.906 87.7217L192.781 91.214L192.657 94.8725L192.532 98.24C192.532 99.1962 192.615 101.317 192.823 104.684V104.809C192.076 105.848 191.578 106.929 191.287 108.052L189.461 109.881L188.63 111.128C187.966 111.128 187.426 111.17 187.011 111.253C186.596 111.336 186.306 111.377 186.098 111.377L184.977 111.502C181.407 110.754 179.166 109.257 178.252 107.012V104.351L178.377 104.06C178.833 98.531 179.083 89.842 179.083 77.9518C179.083 67.8492 179.041 58.7445 178.958 50.5959L166.629 50.7206H158.244C155.255 50.7206 152.224 50.5959 149.152 50.3049V50.4296C149.152 51.469 149.111 52.051 149.028 52.2589C148.654 61.0726 148.447 68.3897 148.447 74.2932L148.571 85.3936C148.571 87.4723 148.53 88.8858 148.447 89.7589L148.322 92.5443C148.322 96.2029 148.364 99.5288 148.447 102.522V102.647C147.616 103.769 147.077 104.85 146.911 105.89C146.164 106.43 145.582 107.054 145.25 107.719C144.586 108.467 144.212 108.883 144.129 108.966L141.597 109.091L140.601 109.216C137.031 108.634 134.748 107.22 133.751 104.85C133.751 103.562 133.793 102.688 133.876 102.314V101.857C134.333 94.5815 134.582 85.7677 134.582 75.4573C134.582 65.7289 134.54 59.4512 134.457 56.6657L134.333 37.5831C134.333 24.7783 134.789 13.4285 135.744 3.61696C135.744 2.66075 136.989 1.82927 139.522 1.08093C141.846 0.374168 143.631 0 144.752 0L149.235 0.415743L149.941 1.53825L150.356 2.36973C150.647 2.95177 150.771 3.49224 150.771 4.07428L151.186 4.90576C151.186 5.11364 151.228 5.19678 151.269 5.23836C151.311 5.27993 151.353 5.27993 151.353 5.15521L151.228 6.56874C151.228 6.65188 151.186 6.77661 151.103 6.85976C151.02 6.9429 150.979 7.1092 150.979 7.2755C150.522 16.3387 150.19 24.1962 149.983 30.8481L149.277 46.6879C150.107 46.6879 150.647 46.7295 150.813 46.8126H156.708L163.433 46.9374C171.569 46.9374 176.675 46.9789 178.833 47.0621V38.9967C178.833 25.5266 179.249 14.4263 180.079 5.73725C180.245 4.90576 181.49 4.11585 183.732 3.36752C185.973 2.53603 187.8 2.20344 189.211 2.36973C190.872 2.36973 192.366 2.41131 193.695 2.49446C193.985 2.78548 194.11 2.95177 194.11 3.03492C194.193 3.11807 194.234 3.24279 194.234 3.36752C194.234 3.49224 194.276 3.61696 194.359 3.70011L194.774 6.9429L195.189 8.35643L195.314 9.35421C195.314 9.47894 195.314 9.56208 195.314 9.56208Z" fill="black"/>
<path d="M240.022 44.7755C240.313 46.9373 240.479 48.5587 240.603 49.6812L241.143 54.1712C241.309 57.2477 241.849 61.1141 242.679 65.6873C242.762 66.6435 243.136 69.2627 243.8 73.5448C243.966 75.1247 244.256 76.9539 244.589 78.9495C244.921 80.9451 245.253 83.2732 245.626 85.8924C246.457 93.5836 246.83 99.2377 246.747 102.855V103.561C246.747 104.31 246.664 104.809 246.457 105.1L245.46 106.098C244.63 106.264 244.049 106.264 243.758 106.098H243.468C242.264 105.349 241.558 104.85 241.351 104.559C240.977 103.811 240.811 103.063 240.811 102.314C240.728 102.023 240.603 101.691 240.52 101.316C240.437 100.942 240.396 100.651 240.396 100.485C240.23 99.9029 239.981 96.286 239.69 89.5509L239.566 84.2294L238.984 81.1529C238.984 78.8248 238.86 76.6213 238.569 74.5426L237.324 67.8076L237.033 66.1446L236.909 65.1468V64.6064C236.909 63.4007 236.452 62.6524 235.497 62.3614L231.72 60.8231L225.576 59.8253H225.161C224.497 59.8253 224.04 60.1995 223.75 60.9478L222.753 65.5626C222.297 68.0155 221.757 71.965 221.217 77.4944C220.553 84.9778 219.723 90.6734 218.685 94.623C218.602 94.914 218.519 95.3298 218.478 95.8702C218.436 96.4107 218.353 97.1175 218.27 97.9905C218.187 98.3647 217.855 99.7366 217.274 102.065C217.066 102.647 216.485 103.936 215.447 105.973C215.24 106.555 214.741 106.804 213.911 106.804L212.915 107.386C211.96 107.386 211.379 107.345 211.088 107.262H210.092L208.266 106.846C207.601 106.846 207.186 106.763 207.02 106.555C206.481 106.389 206.024 106.098 205.775 105.723C206.605 98.9883 207.518 91.1723 208.432 82.2754L210.258 64.6064C210.922 61.4052 211.254 59.1186 211.254 57.7466L211.836 54.2544L212.832 51.8846L213.538 48.1014V47.2699C213.538 46.2305 213.455 45.4406 213.247 44.9002C213.621 42.9462 213.787 41.2001 213.787 39.7034C214.077 36.3359 214.409 33.7998 214.783 32.1369C214.866 31.0144 214.991 30.0166 215.115 29.1019C215.24 28.2289 215.364 27.3974 215.447 26.6491L216.153 20.6208C216.153 20.4545 216.277 20.2051 216.568 19.914L216.693 18.9163L218.519 10.4767C218.228 9.56204 218.561 8.31481 219.515 6.81814C220.636 5.15517 221.799 4.15738 223.002 3.86636C223.75 3.86636 224.455 3.74164 225.119 3.45062H225.41C226.157 3.45062 226.78 3.40905 227.237 3.3259C227.693 3.1596 228.108 3.11803 228.482 3.24275C228.856 3.36747 229.105 3.45062 229.188 3.45062C229.271 3.36747 229.354 3.28432 229.478 3.1596C229.561 3.07645 229.727 3.03488 229.893 3.03488C230.059 3.03488 230.308 3.11803 230.599 3.3259H231.139L232.135 2.91016C233.546 2.91016 234.543 3.74164 235.207 5.44619C235.954 7.15073 236.369 8.64741 236.452 9.93621C236.618 10.5598 236.743 11.1834 236.867 11.6408C236.992 12.0981 237.075 12.3891 237.075 12.4722C237.241 13.5947 237.366 14.551 237.366 15.2993L237.656 18.2511L237.947 23.0321C238.113 24.8198 238.362 27.439 238.652 30.8896L239.192 36.0864C239.275 36.9179 239.441 38.2483 239.607 39.9944C239.773 41.7821 239.898 42.6552 239.898 42.6552C239.898 42.6552 239.939 43.3619 240.022 44.7755ZM234.003 41.5327C232.675 31.8043 231.886 26.6906 231.637 26.2333L230.807 29.4761C230.433 30.2245 230.018 31.8459 229.561 34.3819V35.7954C229.354 36.1696 229.229 36.5437 229.146 36.9179C229.063 37.2921 228.939 37.6662 228.856 38.0404C228.565 39.3708 228.067 42.1147 227.32 46.3137L225.784 54.4623C225.701 54.5454 225.659 54.7949 225.659 55.169C225.659 55.5432 225.784 55.8342 226.074 56.0005C226.365 56.2084 226.738 56.2915 227.195 56.2915C228.606 56.2915 230.059 56.541 231.554 56.9983L235.913 56.2915C235.996 55.9174 235.83 54.296 235.373 51.3858L234.003 41.5327Z" fill="black"/>
<path d="M306.15 100.901L306.69 101.899C307.354 102.938 307.811 103.977 308.101 104.975C308.392 106.014 308.558 106.597 308.683 106.804C308.683 107.179 308.6 107.47 308.475 107.636C308.351 107.844 308.06 108.052 307.686 108.343C307.396 108.509 307.022 108.883 306.482 109.382C305.984 109.881 305.486 110.172 305.03 110.172C304.282 110.172 303.701 110.047 303.328 109.756C301.833 108.842 300.297 106.763 298.72 103.562C295.648 96.8266 291.746 88.9275 287.096 79.8643L281.368 68.3482L279.417 64.856L277.756 61.7795L275.639 57.7052C275.182 56.2917 274.601 55.0029 273.979 53.7556L269.786 46.8959C269.329 48.0184 269.08 49.1409 269.08 50.2634V54.1714C269.08 55.1276 269.205 56.0006 269.495 56.8321C269.412 60.1165 269.371 63.8166 269.371 67.9324L269.495 76.9125C269.578 78.2429 269.62 81.2362 269.62 85.8925C269.62 87.6802 269.578 88.8027 269.495 89.26L269.371 93.0433C269.371 98.1154 269.412 101.317 269.495 102.73L269.62 103.021C268.873 103.769 268.375 104.809 268.084 106.098C267.544 106.472 266.922 107.095 266.257 107.927L265.552 109.174C264.348 109.174 263.559 109.216 263.186 109.299C262.978 109.299 262.853 109.34 262.77 109.424H262.065C258.785 108.675 256.71 107.262 255.755 105.225V102.398L255.879 101.982L256.17 96.9513C255.962 96.0367 255.879 95.1636 255.879 94.4153C255.796 93.6669 255.755 92.5029 255.755 90.923L256.17 78.1597L256.295 74.7922L256.585 67.7662L256.295 57.6636C256.212 51.5938 256.17 44.9003 256.17 37.5832C256.17 26.4413 256.627 15.5904 257.581 5.03057C257.747 3.90806 259.2 2.91028 261.94 2.0788V1.95407C262.106 1.78778 262.978 1.66305 264.472 1.66305C264.763 1.5799 265.303 1.53833 266.174 1.53833C267.005 1.53833 267.586 1.5799 267.835 1.66305C270.16 1.66305 271.695 1.70463 272.443 1.78778C273.19 1.78778 273.688 1.82935 273.979 1.87092C274.269 1.9125 274.435 1.95407 274.518 1.95407C279.458 2.61926 283.609 4.24066 286.972 6.85984C289.006 8.35651 291.082 10.6431 293.116 13.7196C294.818 16.7961 295.648 19.5816 295.648 21.9929C295.648 23.4064 295.399 24.7368 294.942 26.0672C293.904 28.6863 292.368 31.0145 290.334 33.0932C288.549 34.8809 286.266 36.4191 283.485 37.708C283.402 37.708 282.655 37.9574 281.243 38.4147C279.998 38.9136 278.96 39.2046 278.13 39.2878C277.59 39.3709 276.884 39.4125 276.013 39.4125H275.182L274.477 39.7035L274.062 40.244C273.771 40.535 274.809 43.071 277.134 47.8105C278.545 50.7207 279.541 52.7163 280.205 53.8388C280.87 54.9613 281.285 55.7096 281.451 56.0838C283.028 58.7861 283.942 60.4075 284.108 60.8648C285.062 62.8188 288.3 68.9718 293.904 79.2406L299.218 88.9275L303.286 96.203C304.116 97.7828 304.78 98.9469 305.237 99.6536C305.777 100.402 306.067 100.818 306.15 100.901ZM279.251 33.3842C280.371 32.719 281.451 31.8876 282.489 30.8482C283.402 30.0999 284.398 28.8111 285.436 26.9402C287.304 24.2379 288.217 21.5356 288.217 18.7917C288.217 16.0893 287.47 13.678 285.976 11.6409C285.436 10.5184 283.443 9.35429 280.081 8.14864C276.718 6.85984 274.02 6.19465 271.945 6.19465C271.945 6.85984 271.986 6.90141 272.069 6.31937C272.069 7.15086 272.028 7.69132 271.945 7.85762L271.82 8.68911C271.737 12.3476 271.612 15.1331 271.488 17.0455C271.363 18.958 271.239 19.9557 271.156 20.0805L270.45 35.0888C273.522 35.0056 276.428 34.4236 279.251 33.3842Z" fill="black"/>
<path d="M329.813 89.3847C329.647 92.586 329.107 97.2007 328.277 103.271C327.82 105.599 327.322 107.137 326.865 107.885C325.827 109.216 324.582 109.839 323.088 109.839C321.51 109.839 320.057 109.34 318.729 108.301C317.401 107.179 316.778 105.931 316.778 104.518L317.068 99.1963C317.234 96.5771 317.359 94.7894 317.359 93.8748L317.65 79.4069V57.3726C317.65 41.7406 317.774 28.9773 318.065 19.0826C318.355 9.06324 318.895 3.99118 319.767 3.78331C320.597 3.78331 321.344 3.74174 322.008 3.65859L324.79 3.24284C325.537 3.07655 326.035 3.11812 326.326 3.36757C326.616 3.45072 327.114 3.86646 327.862 4.6148C328.401 5.27998 328.982 5.61258 329.522 5.61258V12.2229V16.8376C329.522 21.9928 329.647 28.7279 329.937 37.0427L330.228 44.3182C330.311 46.3969 330.352 49.8476 330.352 54.7118C330.435 57.7052 330.477 64.6896 330.477 75.6237C330.352 82.0677 330.103 86.6824 329.813 89.3847Z" fill="black"/>
<path d="M377.759 4.3652C377.759 4.94724 377.51 5.36299 377.053 5.61243C376.762 6.19447 376.43 6.48549 376.057 6.61021C374.355 6.81809 373.068 6.90123 372.113 6.90123H370.452L367.381 7.31698C366.55 7.40013 366.135 8.02374 366.135 9.14624V11.3913L366.426 12.098C366.467 12.2643 366.55 12.4722 366.55 12.7632C366.55 13.4284 366.592 13.47 366.675 12.8879V14.1352C366.592 14.2183 366.55 14.4678 366.55 14.8419L366.26 17.5027C366.343 18.542 366.384 20.787 366.384 24.2377C366.384 28.6446 366.011 36.2942 365.263 47.2699L364.558 61.322C364.475 64.0243 364.433 73.0043 364.433 88.2621L364.309 91.0891L364.184 94.1656C364.184 98.3646 364.226 101.109 364.309 102.314V102.439C363.769 103.021 363.271 103.894 362.897 105.1C362.814 105.308 362.358 105.806 361.486 106.638C361.486 106.929 361.237 107.303 360.78 107.76C359.659 107.76 358.912 107.802 358.539 107.885L357.833 108.01C354.844 107.262 352.893 106.014 351.938 104.227L352.063 102.106V101.857C352.229 100.527 352.436 98.1568 352.602 94.7061C352.229 93.5836 352.063 92.669 352.063 91.8791C352.063 90.5903 352.187 89.3015 352.478 88.0958L352.768 85.3103V79.1158C352.768 70.3436 352.727 64.6063 352.644 61.9871L352.519 43.0293C352.519 29.5592 352.934 19.1241 353.765 11.7238C353.765 11.3497 353.931 11.0171 354.346 10.7261C354.346 9.60356 354.304 9.02152 354.221 9.02152L349.447 9.31254L348.202 9.43726C347.911 9.52041 347.247 9.56199 346.251 9.56199C344.757 9.56199 343.511 9.27097 342.473 8.7305C341.519 8.06531 341.062 7.06753 341.062 5.65401C341.062 4.98882 341.394 4.48993 342.058 4.11576C342.141 3.94946 342.349 3.74159 342.598 3.57529L345.96 3.15955L348.617 2.86853L352.395 2.74381H354.636C355.965 2.66066 357.501 2.61908 359.244 2.61908L359.784 2.74381C361.735 2.66066 363.894 2.61908 366.218 2.61908H367.339L370.411 2.20334C370.951 1.91232 371.49 1.7876 371.947 1.7876L372.943 1.91232L374.355 1.7876C375.641 1.7876 376.638 2.20334 377.302 3.03483C377.593 3.45057 377.759 3.65844 377.759 3.65844C377.759 3.65844 377.759 3.86631 377.759 4.3652Z" fill="black"/>
<path d="M432.264 62.1535C432.264 68.4312 432.223 72.5055 432.14 74.3763C432.057 81.9429 431.641 88.3453 430.894 93.5837C430.811 95.5377 430.521 97.4085 430.064 99.1962C429.607 101.732 428.902 103.645 427.947 104.933C425.249 111.377 421.512 116.158 416.739 119.235C412.421 122.062 408.229 123.434 404.119 123.434C400.59 123.434 397.394 122.436 394.613 120.482C391.624 118.528 389.382 115.66 387.888 111.918C386.684 109.216 385.937 107.345 385.646 106.305C385.107 104.268 384.816 102.772 384.816 101.815C384.816 100.61 385.148 99.5288 385.812 98.5726C386.725 97.2838 388.427 96.6186 390.835 96.6186C393.077 96.6186 394.986 97.0759 396.564 98.0321C398.432 99.0715 399.428 100.277 399.511 101.691L399.636 107.178C399.802 110.172 400.175 112.542 400.757 114.329C401.213 115.452 401.711 116.283 402.209 116.865C402.708 117.406 403.372 117.738 404.119 117.863C404.285 117.946 404.742 117.988 405.364 117.988C407.523 117.988 409.474 117.239 411.259 115.743C412.836 114.412 414.497 112.458 416.157 109.839C416.822 101.067 417.154 91.796 417.154 82.0676L416.863 59.7422C413.584 61.1557 410.595 61.8625 407.897 61.8625C403.87 61.8625 400.009 60.6568 396.273 58.204C392.62 55.5848 390.171 52.2588 388.843 48.2261C387.888 46.0643 387.307 43.4451 387.016 40.3686L386.725 37.2921C386.352 34.8392 386.061 33.301 385.895 32.6773C385.688 30.4323 385.605 29.102 385.605 28.6446V27.6469L385.48 16.7128C385.48 12.597 385.771 9.22945 386.31 6.61027C386.767 3.90795 387.763 2.3697 389.258 1.99553C391.499 1.45506 393.326 1.16404 394.737 1.16404C397.436 1.16404 399.345 1.99553 400.466 3.70007C401.504 5.77879 402.002 8.31482 402.002 11.4329L401.587 19.5814C401.504 21.6602 401.379 23.4063 401.296 24.903C401.213 26.3996 401.089 27.6884 401.006 28.8109C400.923 31.7211 400.715 35.2134 400.424 39.3292C400.341 40.1607 400.3 42.1147 400.3 45.2328L400.424 48.725C401.462 50.1385 402.708 51.4273 404.202 52.633C405.406 53.7555 406.61 54.4623 407.855 54.7533C408.976 55.0443 409.972 55.169 410.802 55.169C413.501 55.169 415.493 53.9218 416.697 51.3858V27.6884L416.407 17.7106C416.407 10.6014 417.693 5.73721 420.35 3.11803C422.509 1.16404 424.46 0.16626 426.245 0.16626C428.279 0.16626 429.939 1.28877 431.143 3.53378C432.472 5.98666 433.094 8.60584 433.094 11.3913C433.011 16.3387 432.762 20.0803 432.389 22.6164C432.389 27.9379 432.098 33.1347 431.558 38.2067L432.14 57.8714L432.264 62.1535Z" fill="black"/>
<path d="M61.9358 244.54C59.4036 255.682 55.1279 265.951 49.0256 275.346C43.0894 284.243 35.3267 289.814 25.7789 292.059L25.3638 292.267L23.5788 292.849C21.8353 294.18 19.22 295.053 15.65 295.427C15.65 295.551 15.5255 295.759 15.2349 296.009L14.1141 297.796C12.246 297.796 11.0837 297.88 10.544 298.004L9.13263 298.212C4.35876 297.131 1.32838 295.219 0 292.433V288.858L0.20756 288.068C0.996287 277.342 1.41141 265.285 1.41141 251.898L1.20385 221.092L0.788727 189.288C0.788727 170.454 1.36989 155.405 2.57374 144.138C2.57374 143.473 3.44549 142.766 5.14748 141.934C6.18528 141.269 7.92878 140.604 10.295 139.939C11.0837 139.814 11.6649 139.689 12.08 139.523H12.4951L20.839 139.939L21.6277 141.352L22.0428 141.934L22.458 142.724C25.6544 143.265 28.9338 144.845 32.3793 147.505C35.5757 149.875 39.5194 153.076 44.2933 157.068C50.6446 162.389 55.7921 169.457 59.7772 178.354C63.4718 187.375 65.5889 196.438 66.1285 205.585V212.153C65.8795 222.505 65.7134 227.661 65.7134 227.661C65.7134 227.661 64.4681 233.273 61.9358 244.54ZM21.2541 183.093L22.0428 202.383L22.2504 210.948L22.8316 239.385V273.184L23.0391 286.488L25.8204 285.698C26.7337 285.574 27.6054 285.241 28.3942 284.701L32.5454 281.333C35.7418 279.337 37.9004 277.55 39.1043 275.97C41.3459 273.309 42.8818 271.314 43.6706 270.025C44.7084 268.32 45.5386 266.574 46.0368 264.87L46.4519 263.664C48.1539 260.754 49.8143 254.102 51.4333 243.791L52.222 238.221C52.8862 235.684 53.4259 230.446 53.7995 222.505C53.924 219.72 54.007 216.061 54.007 211.571C54.007 208.661 53.924 206.666 53.7995 205.626C53.7995 201.261 53.1353 196.605 51.8069 191.699C50.1049 186.003 48.2369 180.432 46.2443 174.986C45.7047 173.531 44.0442 170.745 41.2629 166.63C38.6061 162.805 35.7833 159.354 32.7114 156.278C29.681 153.243 27.1488 151.704 25.1562 151.704C24.243 151.704 23.4958 152.162 22.9561 153.076L21.2541 183.093Z" fill="black"/>
<path d="M140.726 223.046C140.726 235.102 140.061 246.036 138.733 255.848C137.28 266.325 135.08 275.014 132.174 281.874C129.808 287.195 126.03 291.477 120.841 294.803C115.818 298.254 110.505 299.958 104.942 299.958C99.3796 299.958 94.6058 298.171 90.6621 294.595V294.803H88.8771C83.9787 288.442 80.3257 280.377 77.9595 270.565L78.3746 250.485L77.9595 217.101C78.3746 215.895 78.6652 214.315 78.9558 212.32C78.9558 203.423 79.0388 197.686 79.1633 195.025L78.9558 193.653C79.0803 193.528 79.1633 193.196 79.1633 192.655C81.0314 158.98 90.4131 142.142 107.35 142.142C113.577 142.142 119.056 143.93 123.83 147.505C127.815 150.54 130.763 154.739 132.755 160.019C135.246 166.921 137.197 175.651 138.525 186.253C139.065 191.574 139.397 194.859 139.522 196.189C140.352 203.755 140.726 212.694 140.726 223.046ZM128.023 215.105C128.023 210.199 127.981 206.499 127.94 203.963C127.857 201.427 127.857 199.64 127.857 198.6C127.732 197.27 127.649 194.36 127.649 189.87C127.649 186.045 127.566 183.093 127.442 181.139C127.317 178.229 126.902 175.568 126.238 173.198C124.536 165.757 121.422 158.814 116.898 152.328C115.32 150.083 113.701 148.961 112.124 148.961C109.882 148.961 107.682 150.998 105.565 155.114C103.572 159.229 102.202 163.137 101.414 166.837C99.4212 179.019 98.3834 198.767 98.2173 226.081L98.0097 235.809V243.75C98.0097 259.008 98.923 272.561 100.791 284.493C100.791 285.283 100.874 285.989 100.999 286.571C101.123 287.153 101.248 287.652 101.414 288.068C101.829 289.149 102.327 289.98 102.991 290.646C103.78 291.436 104.693 291.851 105.772 291.851C108.554 291.851 111.46 289.523 114.49 284.908C117.396 280.543 119.513 276.51 120.841 272.769C123.872 264.953 126.072 254.227 127.4 240.549C127.857 234.978 128.023 226.497 128.023 215.105Z" fill="black"/>
<path d="M225.7 142.35L225.493 143.764L225.285 144.762L224.497 158.273L224.704 162.431C224.704 163.221 224.746 163.803 224.787 164.218C224.87 164.634 224.87 164.883 224.87 165.008L224.455 179.143C224.206 186.17 223.915 190.867 223.666 193.279L223.251 201.219V201.635C222.463 202.841 222.047 204.504 222.047 206.624V211.613C222.047 212.943 222.255 214.191 222.629 215.396C222.504 219.886 222.421 225 222.421 230.696L222.629 243.002V255.141V260.504L222.421 265.285V269.069L222.213 271.272L222.629 278.631V278.839C221.549 280.709 220.968 282.165 220.844 283.204C219.764 284.119 219.059 285.075 218.643 285.989L217.44 287.361L216.651 287.569C215.987 288.234 215.281 288.567 214.451 288.567C212.707 288.567 211.213 288.442 209.884 288.151C208.556 287.361 207.435 286.447 206.522 285.366C205.194 283.37 204.488 282.248 204.322 281.998V281.208C200.876 274.432 197.721 267.031 194.774 258.924C192.242 251.774 189.004 242.087 185.06 229.906C184.936 229.365 184.562 228.201 183.981 226.33C183.4 224.459 182.404 221.632 181.117 217.766C180.702 216.311 179.124 212.32 176.343 205.834L172.565 195.69L172.358 201.261V201.677C171.569 202.882 171.154 204.545 171.154 206.666V211.655C171.154 212.985 171.361 214.232 171.735 215.438L171.527 230.737L171.735 243.043L171.942 255.183L171.735 260.546C171.61 261.211 171.527 262.791 171.527 265.327C171.527 272.353 171.61 276.801 171.735 278.631C171.735 278.755 171.818 278.839 171.942 278.839C171.693 278.963 171.278 279.628 170.739 280.834C170.739 283.62 170.407 285.865 169.742 287.611C169.203 289.191 167.542 289.98 164.761 289.98L162.768 290.188C161.565 290.188 160.112 289.856 158.41 289.191C157.206 288.401 156.5 287.32 156.209 285.989C154.632 284.534 153.636 283.204 153.221 281.998V280.211L152.432 279.005C152.432 277.3 152.515 276.136 152.639 275.637V275.055C153.428 264.703 153.843 252.938 153.843 239.676L153.636 211.655C153.387 203.173 153.221 193.653 153.221 183.01C153.221 164.842 153.802 150.624 155.006 140.272C155.006 138.941 156.583 137.819 159.78 136.904C162.976 135.698 165.218 135.324 166.546 135.698L172.109 136.114C172.109 136.364 172.233 136.655 172.524 136.904C172.524 137.153 172.648 137.361 172.939 137.486L173.146 138.068C173.395 138.318 173.561 138.525 173.561 138.65L174.143 140.646C175.596 143.681 176.924 148.087 178.128 153.783C178.667 156.153 179.207 158.814 179.83 161.724C180.411 164.634 181.034 167.752 181.698 171.078L183.898 182.802C184.936 189.038 186.264 195.981 187.883 203.672C189.211 209.908 190.332 214.482 191.246 217.392C192.283 220.053 193.031 222.048 193.446 223.378C195.812 229.739 197.68 234.437 199.008 237.514C200.586 242.17 202.246 246.577 203.99 250.818C203.865 249.903 203.782 247.242 203.782 242.877V235.102C203.782 231.527 203.699 228.326 203.575 225.54C203.45 223.004 203.367 219.969 203.367 216.394V182.095L202.952 174.321C202.952 166.255 203.533 161.142 204.737 159.022C204.861 155.571 205.277 149.293 205.941 140.147C206.19 138.816 207.809 137.694 210.715 136.779C213.911 135.574 216.153 135.199 217.481 135.574L223.044 135.989L223.459 136.779C223.708 137.029 223.874 137.237 223.874 137.361L224.455 138.567L225.244 140.563L225.451 141.768V142.766L225.7 142.35Z" fill="black"/>
<path d="M288.84 201.593C289.255 204.628 289.504 206.957 289.629 208.536L290.417 214.897C290.666 219.263 291.414 224.709 292.618 231.194C292.742 232.525 293.282 236.225 294.195 242.336C294.444 244.581 294.818 247.159 295.274 249.986C295.731 252.855 296.229 256.139 296.769 259.839C297.973 270.69 298.471 278.714 298.346 283.911V284.908C298.346 285.989 298.222 286.696 297.931 287.112L296.561 288.484C295.357 288.733 294.569 288.733 294.195 288.484H293.78C292.036 287.444 291.082 286.696 290.791 286.28C290.251 285.241 290.002 284.16 290.002 283.079C289.878 282.663 289.753 282.206 289.587 281.707C289.463 281.167 289.38 280.792 289.38 280.501C289.131 279.712 288.798 274.556 288.383 264.994L288.176 257.428L287.387 253.062C287.387 249.736 287.179 246.618 286.806 243.708L285.021 234.146L284.606 231.776L284.398 230.404V229.615C284.398 227.91 283.734 226.829 282.406 226.413L277.051 224.21L268.333 222.838H267.752C266.839 222.838 266.174 223.378 265.759 224.418L264.389 230.986C263.725 234.437 263.02 240.05 262.189 247.866C261.276 258.467 260.072 266.574 258.619 272.103C258.495 272.519 258.37 273.101 258.329 273.891C258.246 274.681 258.163 275.679 258.038 276.884C257.914 277.425 257.457 279.337 256.668 282.663C256.419 283.453 255.547 285.324 254.094 288.234C253.845 289.024 253.098 289.44 251.894 289.44L250.524 290.23C249.196 290.23 248.324 290.147 247.951 290.022H246.581L244.007 289.44C243.094 289.44 242.471 289.315 242.222 289.024C241.433 288.775 240.811 288.359 240.437 287.819C241.641 278.256 242.886 267.198 244.215 254.601L246.788 229.531C247.702 225.041 248.158 221.757 248.158 219.803L248.947 214.814L250.317 211.447L251.313 206.083V204.961C251.313 203.506 251.189 202.383 250.898 201.593C251.438 198.808 251.687 196.355 251.687 194.235C252.102 189.454 252.559 185.878 253.057 183.509C253.181 181.929 253.347 180.515 253.555 179.227C253.762 177.979 253.928 176.815 254.053 175.734L255.049 167.17C255.049 166.921 255.257 166.588 255.63 166.172L255.838 164.8L258.412 152.868C257.997 151.538 258.495 149.833 259.782 147.713C261.359 145.343 263.02 143.93 264.763 143.556C265.801 143.556 266.797 143.348 267.752 142.974H268.167C269.205 142.974 270.077 142.891 270.741 142.766C271.405 142.516 271.986 142.475 272.526 142.683C273.065 142.891 273.398 142.974 273.522 142.974C273.647 142.849 273.771 142.724 273.937 142.558C274.062 142.433 274.269 142.35 274.518 142.35C274.767 142.35 275.1 142.475 275.515 142.766H276.303L277.673 142.184C279.666 142.184 281.119 143.389 282.032 145.759C283.07 148.129 283.692 150.249 283.817 152.12C283.942 153.201 284.108 154.033 284.315 154.698C284.523 155.363 284.606 155.779 284.606 155.903C284.855 157.483 285.021 158.814 285.021 159.894L285.436 164.052L285.851 170.829C286.1 173.365 286.432 177.065 286.847 181.97L287.636 189.329C287.761 190.535 287.968 192.364 288.217 194.9C288.466 197.436 288.632 198.683 288.632 198.683C288.632 198.683 288.715 199.598 288.84 201.593ZM280.288 197.02C278.42 183.218 277.3 176.025 276.926 175.36L275.722 179.933C275.183 181.014 274.601 183.301 273.937 186.876V188.872C273.688 189.412 273.481 189.953 273.356 190.452C273.231 190.992 273.107 191.532 272.941 192.031C272.526 193.902 271.82 197.81 270.741 203.755L268.541 215.271C268.416 215.396 268.333 215.729 268.333 216.269C268.333 216.81 268.541 217.184 268.914 217.475C269.329 217.724 269.827 217.891 270.492 217.891C272.484 217.891 274.518 218.223 276.635 218.888L282.779 217.891C282.904 217.35 282.655 215.022 281.99 210.948L280.288 197.02Z" fill="black"/>
<path d="M362.067 144.304C362.067 145.094 361.735 145.718 361.071 146.092C360.656 146.882 360.199 147.339 359.701 147.464C357.335 147.713 355.467 147.879 354.138 147.879H351.772L347.414 148.461C346.21 148.586 345.628 149.459 345.628 151.039V154.24L346.044 155.238C346.168 155.488 346.251 155.82 346.251 156.236C346.251 157.151 346.334 157.234 346.459 156.444V158.231C346.334 158.356 346.251 158.689 346.251 159.229L345.836 163.012C345.961 164.468 346.044 167.669 346.044 172.575C346.044 178.811 345.504 189.662 344.466 205.169L343.47 225.041C343.345 228.908 343.262 241.629 343.262 263.207L343.055 267.198L342.847 271.563C342.847 277.508 342.93 281.374 343.055 283.079V283.287C342.266 284.077 341.602 285.324 341.062 287.07C340.938 287.32 340.273 288.068 339.07 289.274C339.07 289.689 338.738 290.188 338.073 290.853C336.496 290.853 335.417 290.937 334.877 291.061L333.881 291.269C329.646 290.23 326.865 288.401 325.537 285.906L325.744 282.913V282.497C325.993 280.626 326.284 277.259 326.533 272.353C325.993 270.773 325.744 269.443 325.744 268.362C325.744 266.491 325.952 264.703 326.325 262.999L326.741 259.008V250.277C326.741 237.805 326.658 229.739 326.533 226.039L326.325 199.182C326.325 180.1 326.907 165.299 328.11 154.864C328.11 154.323 328.36 153.866 328.899 153.45C328.899 151.871 328.816 151.081 328.692 151.081L321.925 151.496L320.14 151.704C319.725 151.829 318.812 151.912 317.359 151.912C315.242 151.912 313.457 151.496 312.004 150.707C310.675 149.792 310.011 148.337 310.011 146.341C310.011 145.427 310.468 144.678 311.381 144.138C311.506 143.888 311.796 143.597 312.17 143.348L316.944 142.766L320.721 142.35L326.076 142.142H329.273C331.141 142.017 333.299 141.934 335.832 141.934L336.62 142.142C339.402 142.017 342.432 141.934 345.753 141.934H347.33L351.772 141.352C352.561 140.937 353.308 140.77 353.972 140.77L355.342 140.978L357.335 140.77C359.203 140.77 360.573 141.352 361.486 142.558C361.901 143.098 362.067 143.348 362.067 143.348C362.067 143.348 362.067 143.639 362.067 144.304Z" fill="black"/>
<path d="M394.446 264.786C394.197 269.276 393.45 275.845 392.246 284.451C391.582 287.777 390.918 289.939 390.254 291.02C388.801 292.891 387.016 293.805 384.899 293.805C382.657 293.805 380.581 293.057 378.755 291.602C376.887 290.022 375.974 288.234 375.974 286.239L376.389 278.672C376.638 274.972 376.804 272.436 376.804 271.106L377.219 250.61V219.387C377.219 197.27 377.427 179.143 377.8 165.091C378.215 150.914 379.004 143.681 380.166 143.431C381.37 143.431 382.408 143.348 383.363 143.223L387.348 142.641C388.386 142.392 389.133 142.433 389.548 142.849C389.963 142.974 390.669 143.597 391.748 144.637C392.537 145.551 393.326 146.05 394.114 146.05V155.404V161.973C394.114 169.249 394.322 178.811 394.696 190.618L395.111 200.97C395.235 203.88 395.318 208.786 395.318 215.687C395.443 219.928 395.526 229.822 395.526 245.33C395.152 254.476 394.82 260.962 394.446 264.786Z" fill="black"/>
<path d="M474.025 223.046C474.025 235.102 473.361 246.036 472.032 255.848C470.579 266.325 468.379 275.014 465.473 281.874C463.107 287.195 459.33 291.477 454.141 294.803C449.118 298.254 443.804 299.958 438.242 299.958C432.679 299.958 427.905 298.171 423.961 294.595V294.803H422.176C417.278 288.442 413.625 280.377 411.259 270.565L411.674 250.485L411.259 217.101C411.674 215.895 411.964 214.315 412.255 212.32C412.255 203.423 412.338 197.686 412.463 195.025L412.255 193.653C412.38 193.528 412.463 193.196 412.463 192.655C414.331 158.98 423.712 142.142 440.649 142.142C446.876 142.142 452.356 143.93 457.13 147.505C461.115 150.54 464.062 154.739 466.055 160.019C468.545 166.921 470.496 175.651 471.825 186.253C472.364 191.574 472.696 194.859 472.821 196.189C473.651 203.755 474.025 212.694 474.025 223.046ZM461.322 215.105C461.322 210.199 461.281 206.499 461.239 203.963C461.156 201.427 461.156 199.64 461.156 198.6C461.032 197.27 460.949 194.36 460.949 189.87C460.949 186.045 460.866 183.093 460.741 181.139C460.616 178.229 460.201 175.568 459.537 173.198C457.835 165.757 454.722 158.814 450.197 152.328C448.62 150.083 447.001 148.961 445.423 148.961C443.181 148.961 440.981 150.998 438.864 155.114C436.872 159.229 435.502 163.137 434.713 166.837C432.72 179.019 431.683 198.767 431.517 226.081L431.309 235.809V243.75C431.309 259.008 432.222 272.561 434.09 284.493C434.09 285.283 434.173 285.989 434.298 286.571C434.422 287.153 434.547 287.652 434.713 288.068C435.128 289.149 435.626 289.98 436.29 290.646C437.079 291.436 437.992 291.851 439.072 291.851C441.853 291.851 444.759 289.523 447.789 284.908C450.695 280.543 452.812 276.51 454.141 272.769C457.171 264.953 459.371 254.227 460.7 240.549C461.156 234.978 461.322 226.497 461.322 215.105Z" fill="black"/>
<path d="M559 142.35L558.792 143.764L558.585 144.762L557.796 158.273L558.004 162.431C558.004 163.221 558.045 163.803 558.087 164.218C558.17 164.634 558.17 164.883 558.17 165.008L557.755 179.143C557.506 186.17 557.215 190.867 556.966 193.279L556.551 201.219V201.635C555.762 202.841 555.347 204.504 555.347 206.624V211.613C555.347 212.943 555.555 214.191 555.928 215.396C555.804 219.886 555.721 225 555.721 230.696L555.928 243.002V255.141V260.504L555.721 265.285V269.069L555.513 271.272L555.928 278.631V278.839C554.849 280.709 554.268 282.165 554.143 283.204C553.064 284.119 552.358 285.075 551.943 285.989L550.739 287.361L549.95 287.569C549.286 288.234 548.581 288.567 547.75 288.567C546.048 288.567 544.512 288.442 543.184 288.151C541.856 287.361 540.735 286.447 539.821 285.366C538.493 283.37 537.787 282.248 537.621 281.998V281.208C534.176 274.432 531.021 267.031 528.074 258.924C525.541 251.774 522.303 242.087 518.36 229.906C518.235 229.365 517.862 228.201 517.281 226.33C516.699 224.459 515.703 221.632 514.416 217.766C514.001 216.311 512.424 212.32 509.642 205.834L505.865 195.69L505.657 201.261V201.677C504.868 202.882 504.453 204.545 504.453 206.666V211.655C504.453 212.985 504.661 214.232 505.035 215.438L504.827 230.737L505.035 243.043L505.242 255.183L505.035 260.546C504.91 261.211 504.827 262.791 504.827 265.327C504.827 272.353 504.91 276.801 505.035 278.631C505.035 278.755 505.118 278.839 505.242 278.839C504.993 278.963 504.578 279.628 504.038 280.834C504.038 283.62 503.706 285.865 503.042 287.611C502.502 289.191 500.842 289.98 498.061 289.98L496.068 290.188C494.864 290.188 493.411 289.856 491.709 289.191C490.505 288.401 489.8 287.32 489.509 285.989C487.932 284.534 486.935 283.204 486.52 281.998V280.211L485.731 279.005C485.731 277.3 485.814 276.136 485.939 275.637V275.055C486.728 264.703 487.143 252.938 487.143 239.676L486.935 211.655C486.686 203.173 486.52 193.653 486.52 183.01C486.52 164.842 487.101 150.624 488.305 140.272C488.305 138.941 489.883 137.819 493.079 136.904C496.275 135.698 498.517 135.324 499.846 135.698L505.408 136.114C505.408 136.364 505.533 136.655 505.823 136.904C505.823 137.153 505.948 137.361 506.238 137.486L506.446 138.068C506.695 138.318 506.861 138.525 506.861 138.65L507.442 140.646C508.895 143.681 510.223 148.087 511.427 153.783C511.967 156.153 512.507 158.814 513.129 161.724C513.71 164.634 514.333 167.752 514.997 171.078L517.197 182.802C518.235 189.038 519.564 195.981 521.183 203.672C522.511 209.908 523.632 214.482 524.545 217.392C525.583 220.053 526.33 222.048 526.745 223.378C529.111 229.739 530.979 234.437 532.308 237.514C533.885 242.17 535.546 246.577 537.289 250.818C537.165 249.903 537.082 247.242 537.082 242.877V235.102C537.082 231.527 536.999 228.326 536.874 225.54C536.75 223.004 536.667 219.969 536.667 216.394V182.095L536.251 174.321C536.251 166.255 536.833 161.142 538.037 159.022C538.161 155.571 538.576 149.293 539.24 140.147C539.489 138.816 541.108 137.694 544.014 136.779C547.211 135.574 549.452 135.199 550.781 135.574L556.343 135.989L556.758 136.779C557.007 137.029 557.174 137.237 557.174 137.361L557.755 138.567L558.543 140.563L558.751 141.768V142.766L559 142.35Z" fill="black"/>
<path d="M551.735 48.6002C551.735 74.9168 530.44 96.2859 504.121 96.2859C477.844 96.2859 456.507 74.9583 456.507 48.6002C456.507 22.2837 477.802 0.914551 504.121 0.914551C530.44 0.956125 551.735 22.2837 551.735 48.6002Z" fill="black"/>
<path d="M502.253 41.6575C502.834 46.688 503.332 50.305 503.706 52.4668C504.121 54.8781 504.993 58.9109 506.321 64.6065C509.891 59.3266 512.05 54.7118 512.797 50.7207C511.884 50.6376 511.303 50.596 511.012 50.5544C509.103 50.4713 507.857 50.2634 507.318 49.8892C506.612 49.3903 506.28 48.6836 506.28 47.7689C506.28 46.9375 506.487 46.2723 506.944 45.7318C507.484 45.1082 508.231 44.7756 509.144 44.7756C509.476 44.7756 510.306 44.8172 511.676 44.9419C511.967 44.9835 512.216 44.9835 512.465 44.9835C514.956 44.9835 519.024 44.5677 524.67 43.7362C526.496 43.4452 528.323 43.3205 530.149 43.3205C533.429 43.3205 535.089 44.4846 535.089 46.7712C535.089 48.2678 534.466 49.0162 533.221 49.0162C532.64 49.0162 531.644 48.8914 530.315 48.6004C529.61 48.4341 528.821 48.351 527.991 48.351C526.247 48.351 522.636 48.8914 517.156 50.014C516.575 52.9657 515.454 56.3332 513.835 60.1165C512.008 64.2739 510.14 67.4336 508.189 69.5954C509.227 71.4247 510.099 72.7551 510.846 73.545C512.341 75.208 514.292 76.0395 516.741 76.0395C517.903 76.0395 519.149 75.8732 520.394 75.5821C521.764 75.2495 522.843 75.1248 523.632 75.1248C524.919 75.1248 525.541 75.79 525.541 77.0372C525.541 78.2013 524.753 79.1575 523.134 79.9474C520.767 81.1115 518.194 81.7351 515.371 81.7351C510.805 81.7351 506.986 79.3238 503.955 74.4181C499.347 78.7834 494.864 80.9868 490.588 80.9868C485.69 80.9868 481.788 78.9912 478.923 74.917C476.931 72.173 475.935 68.8471 475.935 64.8975C475.935 59.9918 477.387 55.4602 480.293 51.3028C483.324 47.0622 488.762 43.2373 496.608 39.8698C496.317 37.6248 496.192 35.6293 496.192 33.9663C496.192 30.183 496.732 26.8571 497.811 23.9885C498.808 21.2446 500.551 18.9164 503 17.0456C505.242 15.341 507.691 14.5095 510.306 14.5095C512.465 14.5095 514.25 15.2579 515.662 16.7961C517.197 18.3759 517.945 20.2883 517.945 22.5334C517.945 25.5683 516.865 28.6864 514.748 31.8876C513.171 34.2157 510.306 36.6686 506.28 39.2046C505.782 39.4957 504.453 40.3272 502.253 41.6575ZM496.94 44.2767C493.826 45.7318 491.169 47.4364 489.011 49.3903C484.237 53.7141 481.829 58.3704 481.829 63.3593C481.829 66.4358 482.66 69.0134 484.278 71.1753C486.022 73.5034 488.513 74.6675 491.792 74.6675C495.155 74.6675 498.6 72.8798 502.046 69.346C500.759 66.2279 499.638 62.0289 498.642 56.7074C497.977 51.8432 497.438 47.6858 496.94 44.2767ZM501.838 37.6248C504.619 36.045 506.819 34.4652 508.438 32.8854C511.095 30.2246 512.465 27.6054 512.465 25.111C512.465 23.8222 512.133 22.7412 511.427 21.8266C510.763 20.9535 509.933 20.5378 508.937 20.5378C506.819 20.5378 504.993 21.785 503.415 24.2379C502.212 26.1919 501.589 29.3515 501.589 33.7168C501.589 34.382 501.672 35.6708 501.838 37.6248Z" fill="#8D1B0E"/>
</svg>
